<svg xmlns="http://www.w3.org/2000/svg" width="400" height="400" viewBox="0 0 400 400"><title>nteract_logo</title><polygon points="284.12 330 200 281.53 200 122.88 284.12 171.36 284.12 330" fill="#a3b7d6"/><polygon points="200 122.88 115.88 171.36 115.88 330 200 281.53 200 122.88" fill="#c8d4e6"/><polygon points="200 70 70 144.92 92.94 158.14 200 96.44 307.06 158.14 307.06 316.78 330 303.56 330 144.92 200 70" fill="#5d779b"/><polygon points="92.94 158.14 70 144.92 70 303.56 92.94 316.78 92.94 158.14" fill="#334866"/><polygon points="92.94 158.14 92.94 316.78 115.88 330 115.88 171.36 92.94 158.14" fill="#a3b7d6"/><polygon points="92.94 158.14 200 96.44 307.06 158.14 307.06 316.78 284.12 330 284.12 171.36 200 122.88 115.88 171.36 92.94 158.14" fill="#edf1f7"/><polygon points="200 158.13 253.53 188.98 253.53 250.68 200 281.53 146.47 250.68 146.47 188.98 200 158.13" fill="#ffb3cc"/><polygon points="200 281.53 200 219.83 146.47 188.98 146.47 250.68 200 281.53" fill="#f21860"/><polygon points="200 219.83 253.53 188.98 253.53 250.68 200 281.53 200 219.83" fill="#fa8aae"/></svg>
